<svg width="100" height="100" viewBox="0 0 100 100" fill="none" xmlns="http://www.w3.org/2000/svg">
<g clip-path="url(#clip0_1_2)">
<path d="M2 1H31.3301C31.8823 1.00004 32.3301 1.44774 32.3301 2V98C32.3301 98.5523 31.8823 99 31.3301 99H2C1.44772 99 1 98.5523 1 98V2C1 1.44772 1.44772 1 2 1Z" fill="#DB3132" stroke="black" stroke-width="2"/>
<path d="M35.33 1H64.6601C65.2123 1.00004 65.6601 1.44774 65.6601 2V98C65.6601 98.5523 65.2123 99 64.6601 99H35.33C34.7777 99 34.33 98.5523 34.33 98V2C34.33 1.44772 34.7777 1 35.33 1Z" fill="#9F70F9" stroke="black" stroke-width="2"/>
<path d="M68.66 1H97.9901C98.5423 1.00005 98.9901 1.44774 98.9901 2V98C98.9901 98.5523 98.5423 99 97.9901 99H68.66C68.1077 99 67.66 98.5523 67.66 98V2C67.66 1.44772 68.1077 1 68.66 1Z" fill="#61ACD7" stroke="black" stroke-width="2"/>
<path d="M25 1.5H41C41.2761 1.5 41.5 1.72386 41.5 2V58C41.5 58.2761 41.2761 58.5 41 58.5H25C24.7239 58.5 24.5 58.2761 24.5 58V2C24.5 1.72386 24.7239 1.5 25 1.5Z" fill="#D54BFA" stroke="black" stroke-width="3"/>
<path d="M58.33 1.5H74.33C74.6062 1.5 74.83 1.72386 74.83 2V58C74.83 58.2761 74.6062 58.5 74.33 58.5H58.33C58.0539 58.5 57.83 58.2761 57.83 58V2C57.83 1.72386 58.0539 1.5 58.33 1.5Z" fill="#819AFE" stroke="black" stroke-width="3"/>
</g>
<rect x="2.5" y="2.5" width="95" height="95" rx="7.5" stroke="black" stroke-width="5"/>
<defs>
<clipPath id="clip0_1_2">
<rect width="100" height="100" rx="10" fill="white"/>
</clipPath>
</defs>
</svg>
